PathFileType	4	(X/Y/Z)	 New Session 104.trc
DataRate	CameraRate	NumFrames	NumMarkers	Units	OrigDataRate	OrigDataStartFrame	OrigNumFrames
100	100	14	14	m	100	331	660
Frame#	Time	C7			T8			IJ			PX			AA			AC			AI			TS			SC			GH			LE			ME			US			RS			
		X1	Y1	Z1	X2	Y2	Z2	X3	Y3	Z3	X4	Y4	Z4	X5	Y5	Z5	X6	Y6	Z6	X7	Y7	Z7	X8	Y8	Z8	X9	Y9	Z9	X10	Y10	Z10	X11	Y11	Z11	X12	Y12	Z12	X13	Y13	Z13	X14	Y14	Z14	
331	3.3100	-0.018480	0.100956	0.157876	0.005896	-0.118173	0.217255	-0.015404	0.008148	-0.011241	-0.004375	-0.135511	-0.080503	0.153467	0.060718	0.180619	0.084807	0.096659	0.125676	0.060363	0.022323	0.211601	0.087227	-0.089609	0.212082	0.007603	0.021188	-0.006879	0.129518	0.085572	0.158863	0.291040	0.262840	0.058491	0.297595	0.236178	-0.030426	0.429506	0.487398	-0.043510	0.361633	0.524873	-0.028328	
332	3.3200	-0.018612	0.100813	0.158316	0.005693	-0.118457	0.217346	-0.015305	0.008315	-0.010994	-0.004343	-0.135458	-0.080305	0.153077	0.060710	0.181302	0.084297	0.096589	0.126574	0.060145	0.021943	0.212093	0.087135	-0.089828	0.212270	0.007784	0.021197	-0.006555	0.129005	0.085509	0.159619	0.287769	0.264630	0.058490	0.294276	0.238002	-0.030451	0.423152	0.490894	-0.044314	0.354784	0.527513	-0.029166	
333	3.3300	-0.018721	0.100676	0.158776	0.005499	-0.118742	0.217431	-0.015129	0.008485	-0.010750	-0.004331	-0.135419	-0.080106	0.152688	0.060776	0.181938	0.083795	0.096553	0.127379	0.059952	0.021599	0.212544	0.087045	-0.090054	0.212409	0.007962	0.021219	-0.006236	0.128492	0.085505	0.160321	0.284666	0.266346	0.058484	0.291194	0.239733	-0.030463	0.417042	0.494191	-0.045086	0.348189	0.529977	-0.030014	
334	3.3400	-0.018822	0.100532	0.159252	0.005329	-0.119022	0.217535	-0.014894	0.008657	-0.010478	-0.004300	-0.135353	-0.079935	0.152289	0.060929	0.182536	0.083303	0.096552	0.128116	0.059756	0.021308	0.212973	0.086969	-0.090263	0.212507	0.008127	0.021276	-0.005923	0.127990	0.085557	0.160981	0.281800	0.267985	0.058454	0.288333	0.241386	-0.030493	0.411177	0.497300	-0.045836	0.341870	0.532277	-0.030828	
335	3.3500	-0.018915	0.100379	0.159709	0.005198	-0.119287	0.217667	-0.014638	0.008821	-0.010183	-0.004247	-0.135250	-0.079799	0.151878	0.061147	0.183103	0.082834	0.096582	0.128803	0.059552	0.021075	0.213388	0.086922	-0.090433	0.212578	0.008271	0.021361	-0.005624	0.127524	0.085648	0.161602	0.279169	0.269543	0.058383	0.285630	0.242953	-0.030557	0.405557	0.500227	-0.046574	0.335841	0.534418	-0.031580	
336	3.3600	-0.018985	0.100234	0.160108	0.005114	-0.119526	0.217813	-0.014399	0.008953	-0.009872	-0.004195	-0.135130	-0.079670	0.151478	0.061387	0.183636	0.082403	0.096641	0.129435	0.059359	0.020885	0.213779	0.086917	-0.090552	0.212632	0.008384	0.021467	-0.005332	0.127106	0.085760	0.162178	0.276685	0.271029	0.058278	0.283031	0.244431	-0.030648	0.400182	0.502976	-0.047306	0.330106	0.536406	-0.032270	
337	3.3700	-0.019030	0.100112	0.160438	0.005073	-0.119732	0.217945	-0.014203	0.009036	-0.009540	-0.004155	-0.135008	-0.079524	0.151127	0.061608	0.184122	0.082004	0.096730	0.130020	0.059191	0.020714	0.214131	0.086951	-0.090622	0.212677	0.008460	0.021609	-0.005030	0.126730	0.085890	0.162710	0.274235	0.272457	0.058150	0.280515	0.245824	-0.030750	0.395050	0.505551	-0.048033	0.324663	0.538251	-0.032917	
338	3.3800	-0.019067	0.100019	0.160716	0.005061	-0.119904	0.218041	-0.014055	0.009065	-0.009183	-0.004116	-0.134886	-0.079361	0.150846	0.061798	0.184546	0.081611	0.096838	0.130587	0.059044	0.020548	0.214444	0.087014	-0.090655	0.212719	0.008499	0.021808	-0.004711	0.126370	0.086046	0.163208	0.271773	0.273825	0.058015	0.278088	0.247137	-0.030854	0.390163	0.507957	-0.048754	0.319500	0.539964	-0.033551	
339	3.3900	-0.019113	0.099940	0.160966	0.005063	-0.120046	0.218098	-0.013965	0.009068	-0.008820	-0.004074	-0.134761	-0.079196	0.150615	0.061971	0.184905	0.081205	0.096944	0.131136	0.058915	0.020389	0.214725	0.087089	-0.090665	0.212756	0.008514	0.022048	-0.004400	0.125995	0.086230	0.163672	0.269337	0.275126	0.057887	0.275781	0.248368	-0.030957	0.385524	0.510203	-0.049465	0.314605	0.541551	-0.034190	
340	3.4000	-0.019184	0.099869	0.161206	0.005073	-0.120164	0.218131	-0.013943	0.009083	-0.008483	-0.004041	-0.134645	-0.079044	0.150388	0.062153	0.185207	0.080794	0.097034	0.131629	0.058807	0.020240	0.214976	0.087164	-0.090664	0.212783	0.008518	0.022281	-0.004146	0.125586	0.086430	0.164085	0.266999	0.276352	0.057769	0.273600	0.249515	-0.031063	0.381137	0.512296	-0.050162	0.309973	0.543017	-0.034836	
341	3.4100	-0.019280	0.099803	0.161438	0.005094	-0.120266	0.218160	-0.013969	0.009118	-0.008194	-0.004043	-0.134556	-0.078911	0.150126	0.062368	0.185466	0.080398	0.097116	0.132025	0.058719	0.020105	0.215194	0.087234	-0.090660	0.212789	0.008505	0.022483	-0.003969	0.125152	0.086630	0.164435	0.264817	0.277496	0.057651	0.271560	0.250579	-0.031180	0.377008	0.514244	-0.050838	0.305612	0.544367	-0.035472	
342	3.4200	-0.019398	0.099752	0.161666	0.005139	-0.120358	0.218198	-0.014001	0.009159	-0.007962	-0.004070	-0.134494	-0.078802	0.149815	0.062618	0.185699	0.080031	0.097211	0.132324	0.058648	0.019986	0.215377	0.087303	-0.090655	0.212764	0.008477	0.022659	-0.003836	0.124724	0.086823	0.164717	0.262828	0.278552	0.057525	0.269690	0.251571	-0.031302	0.373143	0.516057	-0.051489	0.301533	0.545608	-0.036074	
343	3.4300	-0.019532	0.099719	0.161902	0.005214	-0.120449	0.218246	-0.014015	0.009197	-0.007810	-0.004104	-0.134451	-0.078714	0.149476	0.062886	0.185914	0.079696	0.097336	0.132558	0.058581	0.019890	0.215530	0.087378	-0.090648	0.212709	0.008447	0.022805	-0.003704	0.124336	0.087012	0.164930	0.261044	0.279519	0.057384	0.268000	0.252500	-0.031417	0.369548	0.517740	-0.052112	0.297750	0.546750	-0.036617	
344	3.4400	-0.019674	0.099682	0.162143	0.005313	-0.120543	0.218291	-0.014024	0.009235	-0.007756	-0.004138	-0.134412	-0.078637	0.149156	0.063146	0.186104	0.079386	0.097495	0.132764	0.058510	0.019820	0.215654	0.087461	-0.090638	0.212633	0.008424	0.022907	-0.003558	0.124004	0.087202	0.165091	0.259461	0.280409	0.057232	0.266490	0.253374	-0.031526	0.366229	0.519299	-0.052702	0.294270	0.547802	-0.037089	
